<mxfile host="app.diagrams.net" modified="2024-10-01T08:12:12.980Z" agent="Mozilla/5.0 (Windows NT 10.0; Win64; x64) AppleWebKit/537.36 (KHTML, like Gecko) Chrome/129.0.0.0 Safari/537.36" version="24.5.5" etag="bveROLR9RiLfWdS_yzJ-" type="github">
  <diagram name="Page-1" id="xkvblJsRDSUkhws6TrM-">
    <mxGraphModel>
      <root>
        <mxCell id="0" />
        <mxCell id="1" parent="0" />
      </root>
    </mxGraphModel>
  </diagram>
</mxfile>
